<svg width="1300" height="220" viewBox="0 0 1300 220" fill="none" xmlns="http://www.w3.org/2000/svg">
<path d="M97.6299 34.6079C89.8976 15.4082 82.4685 8.01436 60.8362 3.96063H0.739868V219.48H1299.56V3.96063H1217.38C1191.67 7.37805 1178.99 11.4157 1169.55 34.6079C1131.53 27.6872 1113.14 34.6079 1094.74 52.4032C1046.91 24.7214 981.905 23.7327 943.884 64.2666C902.185 3.95974 793.03 -25.6984 701.046 34.6079C650.761 3.96063 596.797 9.89202 557.551 34.6079C490.096 -17.7894 387.073 -12.8455 326.977 64.2666C285.278 27.688 220.275 24.7222 176.123 52.4032C154.047 34.6079 127.065 29.6653 97.6299 34.6079Z" fill="url(#paint0_radial_229_439)"/>
<defs>
<radialGradient id="paint0_radial_229_439" cx="0" cy="0" r="1" gradientUnits="userSpaceOnUse" gradientTransform="translate(636.044 55.3629) rotate(90) scale(164.111 594.501)">
<stop stop-color="#F0A795"/>
<stop offset="1" stop-color="#FF8C70" stop-opacity="0"/>
</radialGradient>
</defs>
</svg>
